<svg id="图层_1" data-name="图层 1" xmlns="http://www.w3.org/2000/svg" viewBox="0 0 1920 3530.91"><defs><style>.cls-1{fill:none;stroke:#0b0bf4;stroke-miterlimit:10;}</style></defs><line class="cls-1" x1="274.89" x2="274.89" y2="3530.91"/><line class="cls-1" x1="550.37" x2="550.37" y2="3530.91"/><line class="cls-1" x1="825.84" x2="825.84" y2="3530.91"/><line class="cls-1" x1="1101.32" x2="1101.32" y2="3530.91"/><line class="cls-1" x1="1376.8" x2="1376.8" y2="3530.91"/><line class="cls-1" x1="1652.28" x2="1652.28" y2="3530.91"/><line class="cls-1" y1="205.5" x2="1920" y2="205.5"/><line class="cls-1" y1="413" x2="1920" y2="413"/><line class="cls-1" y1="620.5" x2="1920" y2="620.5"/><line class="cls-1" y1="828.01" x2="1920" y2="828.01"/><line class="cls-1" y1="1035.51" x2="1920" y2="1035.51"/><line class="cls-1" y1="1243.01" x2="1920" y2="1243.01"/><line class="cls-1" y1="1450.52" x2="1920" y2="1450.52"/><line class="cls-1" y1="1658.02" x2="1920" y2="1658.02"/><line class="cls-1" y1="1865.52" x2="1920" y2="1865.52"/><line class="cls-1" y1="2073.02" x2="1920" y2="2073.02"/><line class="cls-1" y1="2280.53" x2="1920" y2="2280.53"/><line class="cls-1" y1="2488.03" x2="1920" y2="2488.03"/><line class="cls-1" y1="2695.53" x2="1920" y2="2695.53"/><line class="cls-1" y1="2903.04" x2="1920" y2="2903.04"/><line class="cls-1" y1="3110.54" x2="1920" y2="3110.54"/><line class="cls-1" y1="3318.04" x2="1920" y2="3318.04"/></svg>