<?xml version="1.0" encoding="utf-8"?>
<!-- Generator: Adobe Illustrator 26.0.3, SVG Export Plug-In . SVG Version: 6.00 Build 0)  -->
<svg version="1.1" id="图层_1" xmlns="http://www.w3.org/2000/svg" xmlns:xlink="http://www.w3.org/1999/xlink" x="0px" y="0px"
	 viewBox="0 0 1920 3530.91" style="enable-background:new 0 0 1920 3530.91;" xml:space="preserve">
<style type="text/css">
	.st0{fill:none;stroke:#BC6348;stroke-width:3;stroke-miterlimit:10;}
</style>
<g>
	<line class="st0" x1="274.89" y1="0" x2="274.89" y2="3530.91"/>
</g>
<g>
	<line class="st0" x1="550.37" y1="0" x2="550.37" y2="3530.91"/>
</g>
<g>
	<line class="st0" x1="825.84" y1="0" x2="825.84" y2="3530.91"/>
</g>
<g>
	<line class="st0" x1="1101.32" y1="0" x2="1101.32" y2="3530.91"/>
</g>
<g>
	<line class="st0" x1="1376.8" y1="0" x2="1376.8" y2="3530.91"/>
</g>
<g>
	<line class="st0" x1="1652.28" y1="0" x2="1652.28" y2="3530.91"/>
</g>
<line class="st0" x1="0" y1="205.5" x2="1920" y2="205.5"/>
<line class="st0" x1="0" y1="413" x2="1920" y2="413"/>
<line class="st0" x1="0" y1="620.5" x2="1920" y2="620.5"/>
<line class="st0" x1="0" y1="828.01" x2="1920" y2="828.01"/>
<line class="st0" x1="0" y1="1035.51" x2="1920" y2="1035.51"/>
<line class="st0" x1="0" y1="1243.01" x2="1920" y2="1243.01"/>
<line class="st0" x1="0" y1="1450.52" x2="1920" y2="1450.52"/>
<line class="st0" x1="0" y1="1658.02" x2="1920" y2="1658.02"/>
<line class="st0" x1="0" y1="1865.52" x2="1920" y2="1865.52"/>
<line class="st0" x1="0" y1="2073.02" x2="1920" y2="2073.02"/>
<line class="st0" x1="0" y1="2280.53" x2="1920" y2="2280.53"/>
<line class="st0" x1="0" y1="2488.03" x2="1920" y2="2488.03"/>
<line class="st0" x1="0" y1="2695.53" x2="1920" y2="2695.53"/>
<line class="st0" x1="0" y1="2903.04" x2="1920" y2="2903.04"/>
<line class="st0" x1="0" y1="3110.54" x2="1920" y2="3110.54"/>
<line class="st0" x1="0" y1="3318.04" x2="1920" y2="3318.04"/>
</svg>
